<?xml version="1.0" standalone="no"?>
<!DOCTYPE svg PUBLIC "-//W3C//DTD SVG 20010904//EN"
 "http://www.w3.org/TR/2001/REC-SVG-20010904/DTD/svg10.dtd">
<svg version="1.0" xmlns="http://www.w3.org/2000/svg"
 width="1024.000000pt" height="1024.000000pt" viewBox="0 0 1024.000000 1024.000000"
 preserveAspectRatio="xMidYMid meet">
<metadata>
Created by potrace 1.14, written by Peter Selinger 2001-2017
</metadata>
<g transform="translate(0.000000,1024.000000) scale(0.100000,-0.100000)"
fill="#000000" stroke="none">
<path d="M5215 8740 c-3 -5 -26 -10 -51 -10 -24 0 -44 -4 -44 -10 0 -5 -9 -10
-19 -10 -11 0 -23 -5 -26 -11 -4 -6 -13 -8 -20 -5 -7 2 -16 -2 -19 -10 -3 -8
-12 -14 -21 -14 -8 0 -15 -4 -15 -10 0 -5 -6 -10 -14 -10 -7 0 -25 -11 -40
-25 -14 -13 -26 -22 -26 -19 0 2 -33 -28 -73 -68 -41 -40 -72 -76 -70 -80 2
-5 -1 -8 -7 -8 -6 0 -9 -4 -5 -9 3 -5 -4 -12 -15 -16 -11 -3 -20 -10 -20 -14
0 -4 -9 -17 -20 -29 -12 -12 -19 -22 -16 -22 3 0 -9 -15 -27 -34 -47 -51 -56
-63 -50 -70 4 -3 1 -6 -5 -6 -7 0 -12 -7 -12 -15 0 -8 -8 -15 -17 -15 -14 0
-15 -2 -4 -9 11 -7 9 -11 -9 -21 -12 -6 -19 -14 -16 -17 3 -4 -1 -14 -10 -24
-9 -10 -14 -26 -10 -35 5 -12 2 -15 -9 -10 -9 3 -13 2 -10 -4 6 -9 -6 -28 -33
-53 -7 -7 -23 -22 -34 -34 -12 -13 -28 -23 -35 -23 -7 0 -13 -4 -13 -10 0 -5
-6 -10 -12 -10 -7 0 -26 -14 -42 -30 -16 -17 -33 -30 -38 -30 -4 0 -8 -6 -8
-13 0 -7 -9 -19 -20 -27 -11 -8 -20 -20 -20 -26 0 -7 -7 -15 -16 -18 -8 -3
-12 -10 -9 -16 3 -5 2 -10 -3 -10 -9 0 -37 -50 -34 -62 1 -5 -4 -8 -11 -8 -7
0 -13 -10 -14 -22 -1 -11 -7 -25 -14 -29 -6 -4 -9 -16 -6 -28 3 -11 -1 -25 -9
-32 -8 -6 -14 -18 -14 -26 0 -18 -25 -44 -34 -36 -3 4 -6 1 -6 -5 0 -7 -7 -12
-16 -12 -8 0 -13 -4 -10 -8 2 -4 -12 -19 -32 -32 -20 -14 -41 -30 -45 -37 -4
-7 -15 -13 -24 -13 -9 0 -14 -3 -11 -6 4 -3 -8 -19 -24 -35 -17 -16 -27 -29
-22 -29 5 0 -2 -7 -14 -16 -12 -8 -20 -19 -17 -24 3 -4 -2 -11 -11 -14 -9 -4
-14 -9 -11 -12 3 -4 -3 -14 -14 -23 -11 -9 -21 -23 -22 -33 -2 -9 -8 -22 -14
-29 -6 -8 -13 -23 -15 -34 -2 -11 -9 -19 -16 -18 -6 2 -9 -3 -6 -11 3 -7 -2
-20 -10 -29 -8 -8 -13 -17 -11 -21 3 -3 2 -4 -2 -1 -3 3 -13 -1 -21 -7 -8 -7
-24 -17 -36 -23 -11 -7 -20 -17 -18 -24 1 -7 -2 -10 -6 -7 -12 7 -44 -28 -35
-38 5 -4 4 -7 -2 -5 -20 5 -45 -14 -45 -34 0 -11 -3 -17 -6 -14 -7 7 -64 -77
-64 -93 0 -6 -4 -10 -10 -10 -5 0 -10 -7 -10 -15 0 -8 -5 -15 -11 -15 -6 0 -9
-6 -6 -14 3 -8 -1 -17 -9 -20 -8 -3 -14 -11 -12 -18 4 -17 -51 -88 -68 -88 -8
0 -14 -4 -14 -10 0 -5 -7 -10 -16 -10 -8 0 -13 -4 -10 -8 3 -5 -8 -16 -25 -26
-16 -9 -29 -24 -29 -32 0 -8 -3 -13 -7 -11 -5 2 -23 -11 -41 -30 -19 -18 -31
-33 -28 -33 4 0 -9 -16 -28 -35 -20 -19 -33 -35 -30 -35 5 0 -9 -18 -44 -55
-13 -14 -20 -25 -16 -25 3 0 1 -6 -5 -13 -6 -8 -8 -17 -4 -20 3 -4 1 -7 -5 -7
-7 0 -12 -7 -12 -15 0 -9 -7 -18 -15 -21 -8 -4 -13 -10 -10 -14 3 -5 1 -11 -5
-15 -5 -3 -10 -15 -10 -26 0 -11 -7 -22 -15 -25 -8 -4 -12 -10 -9 -16 6 -10
-35 -45 -48 -40 -5 1 -8 -5 -8 -13 0 -9 -6 -12 -15 -9 -10 4 -15 0 -15 -11 0
-9 -4 -13 -10 -10 -5 3 -10 -1 -10 -10 0 -9 -4 -14 -8 -11 -5 3 -20 -5 -33
-17 -13 -12 -27 -21 -31 -20 -4 2 -5 -4 -2 -12 4 -10 0 -15 -11 -15 -9 0 -14
-4 -11 -9 3 -4 -8 -19 -24 -31 -17 -13 -29 -28 -27 -34 2 -6 -7 -19 -20 -30
-13 -10 -22 -21 -19 -24 3 -3 -1 -10 -10 -16 -8 -6 -16 -18 -18 -26 -4 -25
-27 -61 -35 -56 -5 3 -7 -6 -5 -20 1 -15 -4 -28 -12 -31 -8 -3 -12 -9 -9 -13
6 -10 -29 -50 -44 -50 -6 0 -11 -4 -11 -10 0 -5 -7 -10 -15 -10 -8 0 -15 -4
-15 -10 0 -5 -5 -10 -11 -10 -6 0 -20 -11 -31 -25 -11 -14 -24 -25 -29 -25
-13 0 -69 -58 -69 -71 0 -6 -5 -7 -10 -4 -5 3 -10 2 -10 -4 0 -5 -11 -22 -25
-37 -14 -15 -25 -33 -25 -39 0 -7 -7 -16 -16 -19 -8 -3 -13 -10 -9 -15 3 -6
-3 -14 -12 -20 -10 -6 -14 -11 -10 -11 5 0 0 -12 -11 -27 -10 -16 -25 -44 -32
-63 -8 -19 -21 -41 -30 -48 -8 -8 -9 -11 -2 -7 6 3 12 4 12 0 0 -9 -68 -75
-77 -75 -5 0 -16 -8 -25 -17 -21 -24 -60 -53 -70 -53 -4 0 -4 -7 -1 -17 4 -11
3 -14 -5 -9 -7 4 -12 2 -12 -4 0 -6 -11 -15 -25 -22 -13 -6 -22 -15 -19 -20 3
-4 -2 -11 -10 -14 -9 -3 -13 -10 -10 -15 3 -5 -2 -12 -10 -15 -9 -3 -13 -10
-10 -15 3 -5 -1 -9 -9 -9 -8 0 -14 -8 -13 -17 0 -10 -5 -17 -12 -15 -8 1 -11
-2 -7 -8 3 -6 -7 -30 -24 -55 -17 -25 -26 -45 -20 -45 6 0 7 -5 4 -10 -4 -6
-11 -7 -17 -4 -7 5 -9 1 -5 -9 3 -10 2 -17 -3 -17 -5 0 -12 -9 -15 -21 -6 -19
-45 -66 -45 -54 0 3 -13 -8 -29 -24 -16 -16 -31 -28 -33 -25 -3 2 -22 -12 -42
-31 -21 -19 -42 -35 -47 -35 -5 0 -9 -5 -9 -11 0 -6 -14 -24 -31 -40 -19 -17
-28 -33 -23 -41 4 -7 4 -10 -1 -6 -10 9 -91 -112 -87 -129 2 -7 -4 -13 -13
-13 -9 0 -13 -4 -10 -10 3 -5 -1 -20 -10 -34 -9 -13 -15 -28 -14 -32 4 -13
-23 -64 -33 -64 -4 0 -8 -7 -8 -15 0 -8 -4 -15 -10 -15 -11 0 -53 -81 -45 -88
2 -2 -2 -11 -10 -19 -8 -8 -15 -32 -15 -53 0 -21 -6 -45 -12 -52 -15 -16 -14
-137 1 -166 5 -10 11 -37 12 -60 2 -22 6 -39 11 -36 4 3 8 -8 8 -25 0 -16 5
-33 10 -36 5 -3 10 -15 10 -26 0 -11 5 -17 10 -14 6 3 10 -3 10 -14 0 -12 5
-21 11 -21 5 0 7 -4 4 -10 -3 -5 -1 -10 4 -10 6 0 10 -3 10 -7 -4 -22 2 -33
13 -27 8 5 9 2 5 -9 -3 -10 -3 -17 1 -17 4 0 18 -17 32 -37 28 -42 107 -123
120 -123 5 0 12 -9 15 -20 4 -11 10 -18 14 -16 4 3 13 -4 21 -14 8 -10 17 -17
22 -14 4 3 8 0 8 -6 0 -18 22 -35 50 -38 14 -2 30 -9 35 -14 7 -8 5 -8 -5 -3
-13 8 -13 6 -1 -8 7 -9 18 -14 25 -10 6 4 3 -5 -7 -20 -9 -15 -14 -27 -11 -27
4 0 0 -8 -9 -18 -10 -10 -14 -22 -10 -25 3 -4 -2 -7 -11 -7 -11 0 -16 -5 -13
-13 3 -8 -6 -22 -19 -32 -13 -10 -24 -23 -24 -30 0 -6 -9 -20 -20 -30 -11 -10
-20 -24 -20 -32 0 -8 -11 -26 -25 -41 -56 -60 -60 -65 -45 -57 14 9 -21 -39
-67 -90 -12 -14 -20 -25 -17 -25 3 0 -2 -7 -10 -16 -9 -8 -14 -20 -11 -25 4
-5 -1 -9 -9 -9 -8 0 -18 -9 -21 -20 -3 -11 -11 -20 -16 -20 -6 0 -7 -5 -4 -10
3 -6 -1 -13 -9 -16 -9 -3 -16 -12 -16 -19 0 -7 -7 -15 -15 -19 -8 -3 -15 -12
-15 -21 0 -8 -4 -15 -9 -15 -5 0 -11 -12 -13 -28 -2 -15 -8 -26 -14 -25 -6 1
-10 -8 -9 -20 2 -12 8 -21 14 -19 6 1 10 -1 10 -5 -4 -24 2 -53 10 -48 5 3 12
1 16 -4 8 -14 128 -7 133 7 2 6 10 8 19 5 8 -3 19 0 23 7 4 7 22 13 39 14 17
0 31 3 31 7 0 6 66 33 75 30 4 -1 14 6 23 16 9 10 22 18 27 19 26 1 65 25 65
39 0 9 4 13 10 10 5 -3 15 3 22 15 7 11 18 20 25 20 7 0 12 6 10 13 -2 14 36
11 41 -4 2 -5 11 -9 20 -9 15 0 15 -2 2 -10 -8 -5 -10 -10 -5 -10 6 0 10 -34
11 -81 0 -44 5 -84 10 -87 6 -4 11 -23 12 -42 4 -56 5 -60 15 -60 5 0 7 -11 5
-25 -4 -17 -1 -25 8 -25 8 0 14 -9 14 -20 0 -11 5 -20 11 -20 5 0 7 -4 4 -10
-5 -9 52 -16 80 -10 6 1 18 3 27 5 36 8 75 66 82 125 3 19 7 49 11 65 4 17 7
48 8 70 1 22 6 43 12 47 6 5 4 8 -5 8 -12 0 -12 2 -2 9 9 5 14 29 15 65 1 31
4 56 7 56 7 0 9 7 12 60 2 19 7 38 12 42 6 4 11 35 12 70 2 35 3 65 4 68 2 3
2 8 1 13 0 4 4 7 10 7 5 0 7 5 4 10 -3 6 -1 10 5 10 6 0 8 5 5 10 -8 13 -3 13
32 -2 15 -6 34 -10 41 -9 6 1 12 -3 12 -9 0 -5 5 -10 12 -10 6 0 20 -8 31 -18
11 -9 17 -12 14 -5 -4 6 14 0 41 -12 59 -30 145 -68 154 -69 3 -1 10 -4 14 -8
4 -5 16 -8 26 -8 10 0 21 -6 24 -14 3 -8 13 -12 25 -9 10 3 19 1 19 -5 0 -5
16 -13 35 -16 19 -4 35 -11 35 -17 0 -6 4 -8 9 -4 5 3 12 1 16 -5 4 -6 11 -8
16 -5 5 4 9 1 9 -5 0 -6 4 -9 9 -5 5 3 15 -1 23 -8 7 -8 21 -13 31 -11 9 1 15
-2 11 -7 -4 -7 10 -13 19 -7 1 1 13 -5 27 -12 25 -14 31 -16 51 -19 5 0 7 -6
3 -13 -4 -6 -3 -8 4 -4 13 8 92 -22 92 -36 0 -5 5 -6 11 -3 5 4 20 -1 31 -12
12 -10 18 -12 14 -5 -7 11 -4 11 15 0 13 -7 26 -16 29 -20 3 -4 16 -6 27 -4
16 4 20 1 16 -10 -3 -8 -2 -14 3 -13 20 3 45 -2 41 -8 -3 -5 5 -9 18 -9 29 -2
85 -26 85 -36 0 -5 7 -8 15 -8 8 0 23 -4 33 -9 9 -5 32 -16 50 -23 17 -7 32
-15 32 -18 0 -3 10 -6 22 -7 11 -1 24 -7 28 -13 4 -6 13 -11 21 -10 28 4 40 0
33 -12 -4 -6 -3 -8 4 -4 6 3 13 2 17 -4 4 -6 11 -8 16 -5 5 4 9 1 9 -5 0 -6 8
-10 18 -8 9 2 16 -3 15 -9 -2 -7 0 -12 5 -12 23 4 52 -2 48 -10 -4 -5 2 -8 11
-6 10 1 44 -11 76 -26 31 -16 57 -26 57 -22 0 5 4 2 9 -5 4 -7 14 -15 22 -16
8 -2 22 -6 31 -10 9 -4 22 -4 29 0 7 4 9 3 5 -4 -7 -12 28 -35 38 -24 4 3 10
2 14 -3 10 -15 50 -35 67 -35 8 0 15 -4 15 -10 0 -5 11 -10 24 -10 13 0 26 -4
28 -9 2 -5 14 -11 28 -13 14 -1 33 -12 43 -23 10 -11 16 -15 13 -8 -3 6 12 3
33 -8 22 -10 47 -19 56 -19 9 0 13 -4 10 -10 -4 -6 7 -10 25 -10 17 0 29 -4
26 -8 -2 -4 7 -9 22 -10 15 -1 29 -7 30 -12 2 -6 12 -10 23 -10 10 0 19 -4 19
-10 0 -5 12 -10 26 -10 14 0 23 -4 19 -10 -3 -5 3 -10 14 -10 11 0 23 -4 26
-10 3 -5 15 -10 25 -10 10 0 20 -4 22 -10 2 -5 14 -11 28 -12 14 -2 27 -5 30
-8 11 -12 66 -33 79 -31 7 1 10 -2 6 -8 -4 -7 4 -11 19 -11 14 0 26 -4 26 -10
0 -5 10 -10 23 -10 13 0 27 -4 32 -9 6 -5 27 -14 48 -21 20 -6 37 -16 37 -21
0 -6 4 -8 9 -4 5 3 12 1 16 -5 4 -6 11 -8 16 -5 5 4 9 1 9 -4 0 -6 9 -11 21
-11 13 0 18 -4 13 -12 -6 -10 -4 -10 8 0 13 10 17 10 22 -4 4 -9 12 -14 21
-10 9 3 18 -1 21 -8 3 -8 14 -13 24 -11 10 2 21 -3 24 -11 3 -9 10 -12 16 -9
6 3 17 0 25 -8 8 -9 24 -13 35 -10 11 3 20 0 20 -6 0 -6 8 -11 19 -11 10 0 24
-7 31 -15 7 -8 16 -12 21 -9 5 3 9 0 9 -5 0 -6 8 -11 18 -11 9 0 26 -7 36 -15
10 -8 23 -12 27 -9 5 3 9 0 9 -5 0 -6 9 -11 20 -11 11 0 20 -6 20 -12 0 -10 2
-10 9 0 7 11 9 11 14 -2 4 -9 14 -13 27 -11 11 2 18 0 15 -6 -4 -5 0 -10 7
-11 23 -2 32 -5 57 -15 13 -5 46 -9 72 -8 27 1 49 -2 49 -7 0 -4 5 -8 11 -8 5
0 8 4 5 8 -3 5 23 7 57 6 68 -2 109 4 102 15 -2 4 11 7 30 6 19 -1 32 2 29 6
-3 5 3 9 13 10 38 1 56 8 78 29 13 12 28 19 34 15 6 -3 11 1 11 10 0 9 5 13
10 10 6 -3 10 -1 10 5 0 6 5 8 10 5 6 -3 10 -1 10 4 0 6 7 11 16 11 8 0 12 5
9 10 -3 6 -1 10 4 10 14 0 51 37 51 51 0 5 5 7 12 3 8 -5 9 -2 5 9 -4 11 -1
17 8 17 8 0 15 7 15 15 0 8 9 19 20 25 12 6 25 22 30 36 6 15 15 22 22 18 7
-4 8 -3 4 5 -8 12 18 44 28 34 3 -4 6 1 6 10 0 9 5 17 10 17 6 0 10 10 10 22
0 12 3 18 7 15 9 -10 43 44 36 56 -3 6 -2 8 3 5 9 -5 45 27 38 34 -2 3 7 15
21 28 14 13 25 29 25 36 0 7 11 21 25 32 13 11 21 22 18 26 -3 3 -1 6 5 6 7 0
12 6 12 13 0 7 10 23 23 35 34 32 46 49 40 56 -3 3 2 8 11 12 9 3 16 12 16 20
0 7 8 18 18 23 9 6 13 11 9 11 -4 0 -2 6 5 14 7 8 16 12 21 9 4 -2 7 3 7 11 0
17 19 44 60 84 14 14 18 22 10 18 -8 -4 -6 0 4 8 11 9 17 16 13 16 -4 0 1 8
11 18 9 11 21 17 26 14 5 -3 6 2 3 12 -4 10 -1 19 8 22 8 4 15 13 15 21 0 8 5
11 10 8 6 -3 10 -1 10 5 0 6 7 18 15 27 8 8 13 19 10 24 -4 5 -1 9 5 9 6 0 18
7 26 15 10 9 11 15 4 15 -6 0 2 14 19 31 17 17 29 34 26 39 -5 8 24 25 38 21
5 -1 6 3 3 8 -3 5 1 14 9 21 8 7 15 21 15 31 0 11 7 19 15 19 8 0 14 3 14 8
-3 19 2 33 11 27 6 -3 10 -2 10 4 0 5 6 16 13 23 8 7 26 33 41 56 15 24 33 45
41 49 8 3 15 10 15 15 0 6 8 17 18 25 11 10 12 12 2 8 -8 -3 -5 2 8 11 12 9
22 22 22 29 0 7 7 18 15 25 9 7 14 15 11 17 -2 2 12 20 30 40 19 20 34 40 34
44 0 14 33 48 42 43 4 -3 5 2 2 10 -4 9 1 18 10 22 9 3 16 11 16 16 0 6 10 19
22 29 11 11 18 19 14 19 -4 0 -1 7 6 15 33 37 39 46 33 55 -4 6 -3 10 2 9 4
-1 15 -1 23 0 13 1 13 2 0 11 -13 9 -13 10 0 10 9 0 24 15 35 33 10 17 27 41
37 51 10 11 18 24 18 28 0 5 5 6 12 2 7 -5 9 -2 5 9 -3 9 0 18 9 21 8 3 14 12
14 21 0 8 5 15 10 15 6 0 10 7 10 16 0 8 4 13 9 9 5 -3 13 4 16 15 4 12 20 34
35 51 16 16 27 29 24 29 -3 0 2 7 10 16 9 8 13 21 9 27 -3 7 -2 9 2 4 11 -9
46 43 38 56 -3 6 -1 7 4 4 12 -8 46 27 36 36 -3 4 -1 7 5 7 6 0 14 9 17 20 4
11 10 18 14 15 4 -2 14 8 22 23 8 15 20 31 27 35 7 5 10 12 7 18 -4 5 -2 9 3
9 6 0 23 20 38 44 16 25 32 42 38 39 5 -4 7 3 4 15 -4 16 -2 19 10 15 9 -4 13
-2 9 4 -4 6 0 14 9 17 9 4 14 13 10 21 -3 9 0 15 10 15 8 0 13 4 10 9 -3 5 1
11 9 15 8 3 15 13 15 21 0 9 5 13 10 10 6 -3 10 3 10 13 0 11 7 22 15 26 8 3
20 17 25 31 6 15 14 23 20 20 5 -3 10 -1 10 5 0 17 46 81 53 73 4 -3 7 4 7 16
0 12 4 19 10 16 6 -3 10 4 10 16 0 12 3 19 6 16 4 -4 15 8 25 26 9 17 22 31
29 29 6 -1 9 2 5 8 -3 5 -1 10 5 10 6 0 8 5 5 10 -3 6 -1 10 5 10 6 0 8 5 4
12 -5 8 -2 9 10 5 14 -5 17 -3 12 8 -3 8 -1 15 5 15 5 0 14 11 19 25 5 14 14
25 20 25 6 0 8 5 5 10 -3 6 1 10 10 10 9 0 14 4 10 9 -3 6 1 13 8 18 8 4 22
22 31 40 9 18 22 36 30 40 14 8 16 12 16 34 0 5 5 7 10 4 6 -3 10 1 10 9 0 9
4 16 10 16 5 0 9 6 7 13 -1 6 4 11 10 10 7 -2 12 1 10 5 -2 8 18 37 71 102 12
15 22 33 22 40 0 6 5 8 10 5 6 -3 10 1 10 9 0 9 4 16 10 16 5 0 9 6 7 13 -1 6
4 11 11 9 8 -1 11 2 8 7 -4 5 8 25 26 43 18 18 31 35 30 38 -1 3 5 13 13 23 8
9 15 22 15 27 0 6 7 13 15 16 8 3 17 14 20 25 4 11 10 17 15 14 6 -4 21 29 19
43 0 2 12 14 28 28 15 13 24 24 19 24 -5 0 4 11 20 25 16 14 25 25 21 25 -5 0
-1 7 7 16 9 8 13 20 10 26 -4 7 -2 8 4 4 6 -3 14 0 19 7 4 8 17 19 28 26 l20
13 -20 -6 c-20 -6 -20 -6 -1 9 11 8 16 15 12 15 -4 0 5 11 20 25 15 14 23 25
19 25 -4 0 2 8 13 19 12 10 19 21 16 24 -3 3 5 17 20 31 14 15 23 33 20 41 -4
8 -2 15 2 15 10 0 34 49 39 78 1 9 7 16 12 15 5 -1 8 11 7 25 0 15 4 30 10 34
8 6 7 8 -1 8 -8 0 -11 13 -8 40 2 23 1 39 -4 36 -4 -3 -5 9 -3 26 4 23 1 29
-8 23 -9 -5 -10 -2 -6 11 3 11 -1 32 -9 48 -8 15 -15 35 -15 42 0 8 -4 14 -10
14 -5 0 -10 7 -10 16 0 8 -4 13 -8 10 -9 -5 -12 11 -12 57 0 16 -3 26 -8 23
-5 -3 -9 1 -9 9 0 8 3 12 7 10 3 -2 6 5 6 15 0 10 -4 16 -8 14 -10 -6 -5 32 5
42 4 4 7 12 7 18 0 6 -4 4 -10 -4 -6 -10 -9 -6 -8 18 1 20 5 29 12 25 6 -4 5
0 -1 9 -7 8 -10 18 -6 22 10 9 11 86 1 80 -12 -8 -10 10 4 24 9 9 9 12 -1 12
-11 0 -11 3 -1 15 7 8 8 15 3 15 -5 0 -9 9 -9 19 0 11 3 18 7 15 11 -6 5 50
-5 58 -6 4 -4 13 3 22 8 9 9 16 4 16 -5 0 -10 7 -10 15 0 8 4 12 9 9 4 -3 8 0
8 5 0 6 -6 11 -12 11 -10 0 -9 3 1 9 7 5 14 20 14 34 0 14 6 28 14 31 8 3 11
10 8 16 -3 5 -1 10 4 10 6 0 11 9 11 19 0 11 5 21 11 23 7 2 13 25 14 51 1 27
5 51 9 54 9 9 7 25 -2 19 -4 -2 -8 4 -8 15 0 10 4 19 9 19 5 0 5 6 0 13 -6 6
-10 24 -9 40 1 15 -2 27 -7 27 -4 0 -5 5 -2 10 3 6 2 10 -3 10 -5 0 -9 6 -9
13 -1 17 -7 41 -13 47 -3 3 -16 22 -30 42 -14 21 -28 38 -31 38 -4 0 -23 16
-43 36 -20 20 -36 33 -36 28 0 -4 -8 3 -19 14 -10 12 -24 22 -31 22 -7 0 -10
7 -7 15 4 8 3 16 -1 19 -4 2 -7 32 -6 65 0 35 -4 61 -9 61 -6 0 -7 3 -4 7 4 3
-2 13 -13 20 -11 8 -18 19 -15 24 4 5 -1 9 -9 9 -9 0 -16 4 -16 8 0 4 -15 15
-34 23 -38 17 -152 26 -142 11 3 -6 -1 -13 -10 -16 -9 -4 -12 -2 -8 5 3 6 -14
0 -39 -14 -62 -35 -95 -38 -121 -11 -9 8 -16 11 -16 5 0 -10 -34 3 -50 19 -3
3 -12 7 -20 9 -8 2 -19 4 -25 6 -9 2 -26 8 -92 37 -16 6 -30 12 -33 12 -3 1
-11 5 -17 9 -7 5 -13 6 -13 3 0 -3 -42 12 -92 33 -51 21 -102 42 -113 46 -11
5 -23 7 -27 7 -5 -1 -8 3 -8 10 0 6 -3 9 -6 5 -7 -7 -64 12 -64 22 0 4 -10 7
-22 6 -13 -1 -29 4 -36 12 -7 7 -22 13 -33 13 -11 0 -18 3 -16 8 3 4 -6 8 -20
9 -14 0 -28 5 -32 10 -3 4 -10 8 -16 8 -22 1 -85 27 -85 36 0 6 -4 8 -9 5 -5
-4 -20 -2 -33 3 -12 5 -26 8 -29 7 -4 0 -16 7 -26 17 -11 9 -22 14 -25 11 -4
-3 -19 3 -34 13 -16 10 -29 17 -31 16 -7 -7 -24 -2 -19 5 3 4 -8 7 -25 6 -19
-1 -29 3 -29 12 0 8 -6 11 -15 8 -8 -4 -15 -1 -15 6 0 6 -3 9 -8 6 -4 -2 -25
4 -47 14 -21 10 -45 16 -52 13 -7 -3 -13 2 -13 10 0 10 -8 14 -25 12 -15 -1
-29 4 -35 14 -5 9 -10 14 -12 12 -4 -6 -80 19 -95 31 -7 5 -17 7 -22 4 -5 -4
-13 -1 -18 6 -7 12 -22 17 -60 20 -7 1 -13 5 -13 10 0 4 -9 8 -19 8 -11 0 -23
5 -26 11 -4 6 -13 8 -21 5 -8 -3 -17 1 -21 10 -3 8 -12 13 -19 10 -7 -3 -16
-1 -19 5 -4 5 -11 7 -16 4 -5 -4 -9 -1 -9 5 0 7 -6 10 -12 8 -7 -3 -19 1 -26
8 -7 7 -21 11 -32 9 -13 -2 -20 2 -20 11 0 11 -6 13 -20 9 -12 -4 -20 -2 -20
5 0 6 -4 8 -10 5 -5 -3 -10 -1 -10 4 0 6 -3 10 -7 10 -21 -3 -44 2 -39 9 2 4
-7 9 -22 10 -14 1 -29 7 -33 13 -3 6 -9 10 -13 10 -24 -3 -36 0 -31 9 4 6 3
10 -2 9 -26 -5 -63 2 -58 11 4 6 -7 10 -24 10 -17 0 -31 5 -31 10 0 6 -9 10
-20 10 -11 0 -20 6 -20 13 0 8 -4 7 -10 -3 -6 -10 -10 -11 -10 -2 0 6 -9 12
-20 12 -11 0 -20 5 -20 10 0 6 -6 10 -12 9 -26 -3 -39 1 -33 12 4 6 1 10 -6 8
-32 -4 -60 2 -54 11 3 6 -2 10 -12 10 -11 0 -25 6 -32 13 -9 7 -12 8 -7 0 3
-6 -12 -3 -33 8 -22 10 -47 19 -56 19 -8 0 -15 5 -15 10 0 6 -7 10 -15 10 -8
0 -24 5 -35 10 -11 6 -29 15 -41 21 -15 7 -19 7 -14 -1 3 -6 -10 -1 -30 10
-19 11 -44 20 -55 20 -11 0 -20 5 -20 10 0 6 -11 10 -25 10 -14 0 -25 5 -25
10 0 6 -11 10 -25 10 -14 0 -25 5 -25 10 0 6 -9 10 -21 10 -11 0 -29 4 -39 10
-10 5 -41 10 -69 11 -29 1 -51 7 -51 13 0 7 -3 7 -8 1 -9 -12 -36 -19 -28 -7
3 5 -16 10 -42 11 -28 1 -50 7 -54 15 -5 8 -17 12 -28 9 -11 -3 -20 -1 -20 5
0 5 -17 12 -37 14 -21 3 -47 9 -57 13 -15 7 -18 5 -11 -6 6 -11 5 -12 -6 -1
-16 15 -145 17 -154 2z"/>
</g>
</svg>
